<?xml version="1.0" encoding="utf-8"?>
<!-- Generator: Adobe Illustrator 21.1.0, SVG Export Plug-In . SVG Version: 6.00 Build 0)  -->
<svg version="1.1" id="Layer_1" xmlns="http://www.w3.org/2000/svg" xmlns:xlink="http://www.w3.org/1999/xlink" x="0px" y="0px"
	 viewBox="0 0 69.2 46" style="enable-background:new 0 0 69.2 46;" xml:space="preserve">
<style type="text/css">
	.st0{fill:#00ADEF;}
	.st1{fill:#485665;}
</style>
<g>
	<ellipse transform="matrix(0.2297 -0.9733 0.9733 0.2297 27.0043 72.9909)" class="st0" cx="59.6" cy="19.4" rx="2.1" ry="1.5"/>
	<g>
		<g>
			<g>
				<path class="st1" d="M5.2,10.3h7.1v1.9H7.6v2.1h4.1v1.9H7.6v3.9H5.2V10.3z"/>
				<path class="st1" d="M13.2,16.4v-6.1h2.5v5.8c0,1.4,0.7,2,2.1,2c1.3,0,2.1-0.7,2.1-2v-5.8h2.5v6.1c0,2.5-1.8,3.9-4.5,3.9
					C15,20.2,13.2,18.9,13.2,16.4z"/>
				<path class="st1" d="M23.7,10.3h2.5v7.9h4.6v1.9h-7.1V10.3z"/>
				<path class="st1" d="M31.7,10.3h2.5v7.9h4.6v1.9h-7.1V10.3z"/>
				<path class="st1" d="M39.9,12.2h-2.9v-1.9h8.2v1.9h-2.9v7.9h-2.5V12.2z"/>
				<path class="st1" d="M46.2,10.3h2.5v9.8h-2.5V10.3z"/>
			</g>
			<g>
				<path class="st1" d="M5.2,22.2h7.1v1.9H7.6v2.1h4.1V28H7.6V32H5.2V22.2z"/>
				<path class="st1" d="M12.3,27.1c0-3.6,1.7-5.1,4.9-5.1c3.2,0,4.9,1.5,4.9,5.1c0,3.4-1.7,5-4.9,5C14,32.1,12.3,30.5,12.3,27.1z
					 M19.6,27.1c0-2.2-0.7-3-2.4-3c-1.7,0-2.4,0.8-2.4,3c0,2,0.7,2.9,2.4,2.9C18.8,30,19.6,29.1,19.6,27.1z"/>
				<path class="st1" d="M23.2,22.2h4.9c2.3,0,3.4,1.3,3.4,3.4c0,1.3-0.7,2.4-1.9,2.8c0.3,0.2,0.4,0.5,0.6,0.9l1.2,2.6h-2.6
					l-1.1-2.5c-0.2-0.4-0.4-0.6-1-0.6h-1.1V32h-2.5V22.2z M27.4,27c1,0,1.5-0.5,1.5-1.4c0-1-0.5-1.5-1.4-1.5h-1.9V27H27.4z"/>
				<path class="st1" d="M32.1,27.1c0-3.3,1.8-5.1,5.3-5.1c1.2,0,2.1,0.2,3,0.5v2.1c-0.9-0.4-1.8-0.5-2.8-0.5c-2,0-2.9,0.9-2.9,3
					c0,2,1,2.9,3,2.9c1,0,1.9-0.2,2.8-0.5v2.2c-0.9,0.3-1.8,0.5-3,0.5C34,32.1,32.1,30.3,32.1,27.1z"/>
				<path class="st1" d="M41.6,22.2h7.2V24h-4.8v2.1h4.2V28h-4.2v2.1h4.8V32h-7.2V22.2z"/>
			</g>
		</g>
		<g>
			<path class="st1" d="M65.2,16.1h3.4v-1.9h-4c0.3,0.1,0.9,0.5,0.7,1.7C65.2,16,65.2,16.1,65.2,16.1z"/>
			<path class="st1" d="M64.1,20.1h5v-1.9h-4.4C64.6,18.8,64.4,19.4,64.1,20.1z"/>
			<path class="st1" d="M61.9,10.3v7.6c0.3-0.9,0.6-1.7,0.8-2.2l0.1-0.3c0.2-0.7,0.9-1.3,1.6-1.2v-2h4.8v-1.9H61.9z"/>
		</g>
		<path class="st1" d="M52.7,14.5l1.9,4H56l1.9-4v3.3c0.5-0.7,1.2-1.2,1.9-1.2c0.1,0,0.3,0,0.4,0c0,0,0.1,0,0.1,0v-6.4H58l-2.6,5.4
			l-2.7-5.4h-2.4v9.8h2.5V14.5z"/>
	</g>
	<g>
		<path class="st0" d="M20.6,9c1.7-0.9,3.5-1.8,5.3-2.6c16-6.7,32-5.1,32,2.6h2.5c0-9.5-16.2-12.3-34.8-4.6
			c-3.2,1.3-6.1,2.9-8.8,4.6H20.6z"/>
		<path class="st0" d="M63.5,15.6c-0.2,0.7-1,3.1-1.5,4.3c-1.2,2.6-1.9,2.6-5.4,3.5c-3.5,0.9-5,3.8-5.7,5.2c-0.7,1.4,0,2.4,0.8,1.1
			c1.2-1.9,2.3-3.1,2.9-3.6c1.1-0.8,2.6-1.3,1.1,1.4c-1.5,2.9-4.6,6.5-9.8,9.5c-2.3,1.3-5.2,2.5-7.9,3.6C21.8,46.8,6.2,44.8,2.5,36
			C1,32.5,1.6,28.4,3.9,24.3V21c-3.7,5.4-4.9,11-3,15.7C5,46.3,21.2,48.8,38,42.7l0,0c4.5-1.6,16.1-6.1,21.8-15
			c3.1-4.8,4.5-10.4,4.7-11.9C64.7,14.4,63.7,14.9,63.5,15.6z"/>
	</g>
</g>
</svg>
